<svg xmlns="http://www.w3.org/2000/svg" viewBox="0 0 496.89 163.11"><g id="Layer_2" data-name="Layer 2"><g id="Layer_1-2" data-name="Layer 1"><path d="M7,147.55s26.84-17,34.72-22.13c22-14.33,51.92-59.91,57.14-74.77,8.6-24.45,4.93-33.07-.63-38.76C94.79,8.36,86,7.14,81.38,9.34c-11,5.29-11.92,16.1-13.78,26.55C65.24,49.08,52.11,147.54,52.28,154.36c.13,5.41,7.26-77.48,44.59-70.81C133.63,90.12,81.82,153,127.17,154c44.94,1,69.36-32.34,72.72-49.58,2.89-14.79-3.61-21.75-10.76-24-8.31-2.57-21.55.7-28.94,14.63-9.1,17.16-5.34,53.43,24.85,59.24,44.26,8.51,88-45.54,99.41-98.39C293.08,16,287,9,278.66,7.25c-6.72-1.43-18,3.62-28.26,42.94-10.12,38.61-18.32,101.36,22.69,105.72,39.24,4.17,74.34-58.49,86.25-95.17,7.93-24.4,11.06-46.55-1.58-52.73-8.4-4.11-20.35,4.31-28.38,25.5C318.32,62.7,304.65,150.15,346.06,154c48.23,5,42.05-67.58,77.28-72.56,0,0,23.1-5.92,31.25,16.24s-5.72,53.59-24.1,56.32c-21.37,3.16-27.91-7.25-30.19-10.22-1.51-2-18.21-25.08,10-56.56,0,0,12.51-14.57,35.16-3.69,21.62,10.38,32.51,6.13,44.42-4.73" style="fill:none;stroke:#231f20;stroke-linecap:round;stroke-linejoin:round;stroke-width:14px"/></g></g></svg>