<svg id="Layer_1" data-name="Layer 1" xmlns="http://www.w3.org/2000/svg" viewBox="0 0 700.14 96.05"><path d="M630.8,348.88c.85-4.6,2-11,3.22-17.34.34-1.81.82-3.82-.76-5.1-1.74-1.39-3.83-.63-5.58.32-6.11,3.34-10.44,8.25-12.18,15.05-1.19,4.67-2,9.45-3,14.16a21.3,21.3,0,0,1-1.47,4.73,3.71,3.71,0,0,1-4.52,2.16c-2.35-.63-2.32-2.48-1.93-4.38q2.35-11.31,4.73-22.6c.24-1.18.49-2.36.69-3.55.37-2.07,1.17-4.5-.85-5.9-2.32-1.62-4.72-.19-6.71,1.19-5.4,3.73-9.32,8.61-10.87,15.09-1.05,4.4-1.86,8.85-2.86,13.26a21.09,21.09,0,0,1-1.49,4.72,3.71,3.71,0,0,1-4.52,2.16c-2.35-.63-2.35-2.45-1.93-4.36q2-9.06,4.05-18.12c.69-3.1,1.45-6.2,1.14-9.4-.2-2.1-.42-4.51-3-5-2.42-.44-3.45,1.65-4.27,3.39a151.46,151.46,0,0,1-7.59,14.92c-3.87,6.24-8.5,11.75-14.88,15.61a20.83,20.83,0,0,1-9.86,3.13,3.55,3.55,0,0,1-4-3,3,3,0,0,1,2.42-3.79c14.27-2.87,19.71-14.38,25.43-25.62,1.43-2.82,2.52-5.82,4.6-8.29,4.78-5.68,12.65-5.22,16.26,1.23,1.37,2.44,2.06,2.72,4,.7a18.24,18.24,0,0,1,11.1-5.7c4-.45,7.75.37,9.76,4.2,1.3,2.49,2.17,2.62,4.15.73a17.37,17.37,0,0,1,9.07-4.86c7.06-1.2,11.95,2.71,12.17,9.81.11,3.51-.84,6.87-1.52,10.27-.63,3.1-1.29,6.2-1.93,9.3-.5,2.43-.88,5.06,1.26,6.75s4.91.85,7.32-.18a23.24,23.24,0,0,0,6.67-4.66c1.92-1.81,4-2.3,5.94-.17s1,4.12-1,5.79a32.63,32.63,0,0,1-11.77,6.67C636.79,365,630.73,360.56,630.8,348.88Z" transform="translate(-474.85 -267.15)"/><path d="M510,363.07c-5.94.06-8.82-2-10.82-7.8-.82-2.41-1.41-2.57-3.18-.84-4.3,4.17-9.15,7.44-15.23,8.46-2.58.43-5.16.33-5.82-2.74s1.71-3.88,4.29-4.52c11.55-2.86,17.84-11.22,21.9-21.58,1.31-3.33,1.78-7,2.53-10.54.62-3,1.87-5.41,5.38-4.62,3.71.84,2.64,3.63,2,6.19-1.84,7.76-3.64,15.52-5.33,23.31-.51,2.37-.81,5.08,1.55,6.63,2.19,1.44,4.67.6,6.95-.39a27.48,27.48,0,0,0,7-4.93c2.06-1.79,4.2-1.82,5.94.35s.66,3.9-1.17,5.43C521.19,359.53,515.87,362.54,510,363.07Z" transform="translate(-474.85 -267.15)"/><path d="M545.43,280c-.69,6.3-3.79,12.84-6.68,19.43a2.88,2.88,0,0,1-3.84,1.5c-1.55-.56-1.66-2-1.53-3.39.35-3.82,2.37-7.08,3.54-10.63,1.45-4.41,3.5-8.76-.17-13.17a2.53,2.53,0,0,1,.53-3.65,3.23,3.23,0,0,1,4.18-.14C544.62,272.15,545.61,275.35,545.43,280Z" transform="translate(-474.85 -267.15)"/><path d="M897.06,352.05c-1.26,1.2-2.42,2.32-3.61,3.41-3.37,3.09-7,5.74-11.52,7-9.85,2.75-17.19-3.49-15.6-13.55.78-4.91,2-9.75,3.29-14.57.87-3.29-.16-5.12-3.38-6.15-3.46-1.11-7.23-4.08-10.11-3.34-3.15.8-2.47,6.07-3.8,9.27-3.71,8.95-8.72,16.88-16.24,23.13a24.55,24.55,0,0,1-10.8,5.53c-8.7,1.77-14.33-2.66-14.32-11.54,0-6.22,2-12.18,3-18.28s-1.26-8.26-7.25-6.43a18.88,18.88,0,0,0-10,6.73,29.78,29.78,0,0,1-4,4.88c-6,5.23-9,11.84-9.7,19.67-.21,2.49-.92,5.1-4.05,5.13-3.3,0-3.71-2.48-3.54-5.13.15-2.37-1-1.68-2-.8-8.07,6.52-16.77,8-26.23,3.21-1.7-.85-3.21-.14-4.79.43a39.52,39.52,0,0,1-20.58,1.86,25.31,25.31,0,0,1-4.39-1.15c-5.55-2.05-8.94-6-8.65-9.87.36-4.72,5.1-9.19,10.86-10.08,7.06-1.08,13,1.72,18.79,5.3,2.36,1.45,4.31,5.32,7.68,3.39,4.31-2.46,7.33-6.31,7.76-11.59.54-6.53-1.71-12.15-5.88-17.08-5.11-6-11.45-10.76-17.2-16.12-2.52-2.35-2.93.15-3.68,1.64q-13,25.67-25.9,51.36c-.2.4-.37.82-.6,1.21-1.27,2.19-2.87,4.48-5.67,3.18-3.09-1.44-1.68-4.09-.61-6.23,8.5-17,17-34.05,25.62-51,2.16-4.23,3.34-7.51-.34-12.05a18.33,18.33,0,0,1-3.2-18.38c1.89-5.1,5.65-7.82,10.1-7.61,4.63.21,7.59,3.09,9.18,8.61,1.75,6.09,0,11.71-2.48,17.08-1.34,2.9-.86,4.51,1.47,6.5,5.76,4.89,11.44,9.9,16.86,15.16a29.47,29.47,0,0,1,9.07,18.29c.81,7.15-.64,13.47-5.55,18.89-.65.71-2,1.3-1.38,2.55.53,1.09,1.84.88,2.86.94a15.57,15.57,0,0,0,9.95-2.34c7.19-4.81,12.73-10.1,14.28-19.62a309,309,0,0,1,10.13-43.16,54,54,0,0,1,7-15.16,17.9,17.9,0,0,1,8.22-6.89c8-3.06,14.76.7,16.23,9.13,1,6-.42,11.72-2.35,17.31a101.31,101.31,0,0,1-10.29,20.62c-1.24,2-2.22,3.18,1.5,3.35,8.8.38,11.73,4.21,10.29,13.05-.9,5.5-2.22,10.94-3.22,16.42-.43,2.36-1,5.23,1.39,6.64,2.21,1.3,5,.91,7.42-.24A28.74,28.74,0,0,0,836.5,347c6.86-8,11.54-16.87,11.78-27.75.14-6,1.54-6.68,6.76-3.78,4.65,2.58,9.66,4.31,14.55,6.34,6.31,2.64,7.93,5.2,7,11.93-.67,4.76-2,9.43-2.85,14.17-.4,2.34-1,5.25,1.21,6.77s5.37,1.1,7.75-.44c8.8-5.71,16.46-12.33,18.48-23.41a69.66,69.66,0,0,1,2.3-9.21c.77-2.35,2.52-3.93,5.23-3.11s2.09,2.87,1.62,4.88c-1.53,6.62-3,13.24-4.5,19.87-.33,1.47-.7,2.94-.89,4.44-.31,2.51-1.2,5.55,1.38,7.08,2.34,1.38,5.29,1,7.86-.28a33.27,33.27,0,0,0,15-14.72c7.37-14.44,19.61-20.37,35-21.06,3.44-.16,4.69-1.11,5.22-4.45,1.19-7.59,2.94-15.09,4.24-22.67.51-3,1.79-5,4.92-4.64,3.59.45,2.84,3.43,2.39,5.72-3.42,17.46-6.93,34.9-10.42,52.35,0,.14-.09.29-.11.44-.42,3.22-2.15,7.22,1,9.29,3.32,2.18,6.93-.13,10-2.16,7.16-4.69,12.24-10.22,13.68-19.5a309.42,309.42,0,0,1,8.86-39.25,72.74,72.74,0,0,1,6.38-15.94,23.31,23.31,0,0,1,7.07-8.15c8.75-5.85,18.28-1.47,19.28,8.91.7,7.28-1.45,14-4.23,20.62a112.39,112.39,0,0,1-9.06,16.71c-1.1,1.73-1.22,2.44,1.33,2.67,10,.89,12.39,3.89,10.86,13.76-.81,5.2-2.06,10.34-3.08,15.52-.47,2.4-1,5.23,1.19,6.73s5.27,1.18,7.81,0c7.12-3.35,12.22-8.89,15.87-15.66a39,39,0,0,1,37.25-20.27c6.48.57,8.28,2.83,7.07,9.22s-2.7,13-3.94,19.51c-.48,2.5-1.18,5.57,1.15,7.2,2.49,1.74,5.64,1,8.15-.63,11.43-7.44,18-18,20-31.43.16-1,.09-2.11.16-3.16.45-6.32,1.5-6.93,7-3.9a111.15,111.15,0,0,0,13.29,5.81c7.66,3,9.33,5.84,8,13.91-.65,3.86-1.81,7.63-2.52,11.48-.5,2.78-1.52,6.1,1.15,8.06,2.92,2.15,6.13.55,8.9-1.1a43.53,43.53,0,0,0,5.11-3.75c2-1.63,4.1-2.4,5.94-.1,1.59,2,.83,3.94-1,5.56a29.44,29.44,0,0,1-14.8,7.49c-8.63,1.43-14.38-3.92-13.17-12.53a128.58,128.58,0,0,1,3.39-15.47c1-3.62.18-5.74-3.56-6.84-3.46-1-7.27-3.94-10.1-3.13-2.59.74-2.21,6-3.49,9.13-3.65,9-8.69,16.89-16.2,23.16a25.11,25.11,0,0,1-10.78,5.58c-4.34.94-8.34.14-10.93-3.61-1.57-2.29-2.55-2.11-4.54-.67a23.78,23.78,0,0,1-19.43,4c-4.88-1-8.86-3.45-10.9-8-1.32-3-2.14-2.19-3.86-.47-4.12,4.12-8.8,7.4-14.65,8.65-9.36,2-15.44-2.81-14.78-12.3.41-5.84,1.92-11.59,2.92-17.39,1-6.14-1.31-8.26-7.27-6.48a18.72,18.72,0,0,0-8.81,5.36c-3.81,4.3-7.5,8.7-11.31,13a7.72,7.72,0,0,0-1.79,4c-.63,3.56-1.31,7.12-2.12,10.64-.48,2.08-1.72,3.64-4.13,3.4a3.29,3.29,0,0,1-3.12-3.78c.22-3.52-1-3.05-3.14-1.46a31.11,31.11,0,0,1-9.26,4.74c-4.71,1.47-8.88.6-11.73-3.41-1.74-2.43-2.79-1.68-4.61-.39a24,24,0,0,1-19,3.93c-4.88-.94-8.86-3.33-11-7.9-1.27-2.72-2.23-2.53-4.05-.59a32.41,32.41,0,0,1-8.71,6.46C908,365.94,900.65,363.07,897.06,352.05Zm178,3.64c7.18-.07,13.77-4.13,15.58-10.31,1.53-5.19,2.27-10.6,3.37-15.91.42-2-.34-3.1-2.43-3.48-8.79-1.59-23.17,6.38-26.63,14.83S1066,355.78,1075.11,355.69Zm-127.91,0c7.21,0,13.74-4,15.59-10.23,1.54-5.18,2.34-10.58,3.43-15.89.46-2.24-.54-3.32-2.83-3.6-9.21-1.13-22.65,6.45-26.12,14.81S938.06,355.71,947.2,355.68Zm82.34-73.9c-.18-2.3.18-5.63-3.19-6.78-3.16-1.08-5.49,1-7.35,3.34-3.47,4.3-5.56,9.32-7.16,14.53-3.48,11.26-6,22.75-8.32,34.29-.18.92-1.12,2.26.12,2.76s1.7-1,2.31-1.83c8.45-10.72,16-22,20.87-34.83A35.61,35.61,0,0,0,1029.54,281.78ZM789.87,330.36c2.59-3.42,5.27-6.76,7.73-10.27,7.46-10.64,14.36-21.6,17.13-34.55.82-3.85,1.77-8.58-2.6-10.37s-7,2.3-9.18,5.6c-4,6.15-6,13.09-7.74,20.12C792.82,310.48,790.43,320.05,789.87,330.36Zm-61.28,25.41c1.42-.12,3.53-.26,5.63-.51.86-.1,2-.27,1.3-1.62-1.88-3.8-14.58-6.55-18-3.92-1.93,1.46-2.06,2.77.31,4C721,355.42,724.42,355.63,728.59,355.77Zm.54-74.76a17.8,17.8,0,0,0,0-1.79c-.22-2.08-1-4.05-3.26-4.27s-2.66,2-3.2,3.68c-1.2,3.76.25,7.06,1.94,10.27.33.61,1,1.45,1.51,1.48,1.07.05,1.24-1.13,1.53-1.93A21.58,21.58,0,0,0,729.13,281Z" transform="translate(-474.85 -267.15)"/><path d="M910.48,303.38c-2.69-.41-5-1.42-4.93-4.38,0-3.15,2.34-4.44,5.19-4.4,2.65,0,4.76,1.33,4.78,4.3C915.53,302.17,913.18,303.1,910.48,303.38Z" transform="translate(-474.85 -267.15)"/><path d="M512.71,303.42c-2.91-.49-5.2-1.59-4.93-4.84.25-2.91,2.46-4.05,5.08-4,2.91.06,5,1.56,4.75,4.73C517.42,302.29,515.16,303.13,512.71,303.42Z" transform="translate(-474.85 -267.15)"/></svg>